<mxfile host="app.diagrams.net" modified="2020-12-29T10:05:39.409Z" agent="5.0 (Windows NT 10.0; Win64; x64) AppleWebKit/537.36 (KHTML, like Gecko) Chrome/86.0.4240.75 Safari/537.36" etag="66QP_JT2ehR9oAxvHMqG" version="13.10.9" type="github">
  <diagram id="GG9Ipb95_vfZ0gtX4E-7" name="Page-1">
    <mxGraphModel dx="1422" dy="762" grid="1" gridSize="10" guides="1" tooltips="1" connect="1" arrows="1" fold="1" page="1" pageScale="1" pageWidth="827" pageHeight="1169" math="0" shadow="0">
      <root>
        <mxCell id="0" />
        <mxCell id="1" parent="0" />
        <mxCell id="-Ye6bn12HQwBd3ugg4Fq-1" value="&lt;span style=&quot;font-size: 14px&quot;&gt;薪宝后端&lt;/span&gt;" style="rounded=1;whiteSpace=wrap;html=1;" vertex="1" parent="1">
          <mxGeometry x="400" y="280" width="110" height="50" as="geometry" />
        </mxCell>
        <mxCell id="-Ye6bn12HQwBd3ugg4Fq-2" value="&lt;font style=&quot;font-size: 14px&quot;&gt;第三方&lt;/font&gt;" style="rounded=1;whiteSpace=wrap;html=1;" vertex="1" parent="1">
          <mxGeometry x="40" y="280" width="110" height="50" as="geometry" />
        </mxCell>
        <mxCell id="-Ye6bn12HQwBd3ugg4Fq-3" value="&lt;span style=&quot;font-size: 14px&quot;&gt;薪宝前端&lt;/span&gt;" style="rounded=1;whiteSpace=wrap;html=1;" vertex="1" parent="1">
          <mxGeometry x="760" y="280" width="110" height="50" as="geometry" />
        </mxCell>
      </root>
    </mxGraphModel>
  </diagram>
</mxfile>
